<?xml version="1.0" standalone="no"?>
<!DOCTYPE svg PUBLIC "-//W3C//DTD SVG 20010904//EN"
 "http://www.w3.org/TR/2001/REC-SVG-20010904/DTD/svg10.dtd">
<svg version="1.0" xmlns="http://www.w3.org/2000/svg"
 width="95.000000pt" height="115.000000pt" viewBox="0 0 95.000000 115.000000"
 preserveAspectRatio="xMidYMid meet">

<g transform="translate(0.000000,115.000000) scale(0.100000,-0.100000)"
fill="#000000" stroke="none">
<path d="M310 1134 c-101 -44 -155 -131 -148 -237 3 -56 14 -81 117 -275 63
-117 117 -210 121 -205 4 4 56 100 116 213 102 191 109 209 112 271 3 55 0 74
-22 117 -54 107 -191 161 -296 116z m175 -115 c94 -83 52 -233 -69 -246 -147
-17 -221 149 -110 247 30 25 43 30 89 30 46 0 59 -4 90 -31z"/>
<path d="M669 757 c-84 -50 -98 -85 -15 -38 l53 31 53 -142 c29 -79 75 -201
101 -271 31 -85 43 -130 36 -132 -88 -29 -243 -75 -252 -75 -8 0 -21 75 -39
228 -31 265 -34 283 -46 262 -5 -9 4 -115 21 -250 15 -129 26 -236 24 -238 -4
-5 -247 69 -258 78 -4 4 -3 44 2 90 6 46 7 89 2 97 -10 18 -17 -12 -27 -119
l-7 -67 -116 -36 c-151 -47 -151 -47 -151 -42 0 2 40 113 90 247 55 148 86
248 82 257 -5 8 -43 -83 -105 -250 -53 -145 -97 -269 -97 -276 0 -16 6 -15
163 33 l143 45 144 -46 c164 -51 139 -52 348 13 61 20 112 41 112 48 0 23
-206 570 -215 572 -6 1 -26 -8 -46 -19z"/>
<path d="M375 50 c-4 -6 32 -10 99 -10 64 0 106 4 106 10 0 6 -40 10 -99 10
-56 0 -103 -4 -106 -10z"/>
</g>
</svg>
