<svg width="39" height="32" viewBox="0 0 39 32" fill="none" xmlns="http://www.w3.org/2000/svg">
<path d="M34.125 5.33301H4.875C4.44402 5.33301 4.0307 5.47348 3.72595 5.72353C3.4212 5.97358 3.25 6.31272 3.25 6.66634V25.333C3.25 25.6866 3.4212 26.0258 3.72595 26.2758C4.0307 26.5259 4.44402 26.6663 4.875 26.6663H34.125C34.556 26.6663 34.9693 26.5259 35.274 26.2758C35.5788 26.0258 35.75 25.6866 35.75 25.333V6.66634C35.75 6.31272 35.5788 5.97358 35.274 5.72353C34.9693 5.47348 34.556 5.33301 34.125 5.33301Z" stroke="#737373" stroke-width="2" stroke-linejoin="round"/>
<path d="M29.25 10.666H22.75V15.9993H29.25V10.666Z" stroke="#737373" stroke-width="2" stroke-linejoin="round"/>
<path d="M9.75 21.3327H29.25M9.75 10.666H14.625M9.75 15.9993H14.625" stroke="#737373" stroke-width="2" stroke-linecap="round" stroke-linejoin="round"/>
</svg>
