<svg width="390" height="470" viewBox="0 0 390 470" fill="none" xmlns="http://www.w3.org/2000/svg">
<g filter="url(#filter0_d_325_2385)">
<rect x="45" y="43" width="300" height="380" rx="24" fill="#F6F6F6"/>
<rect x="56.5" y="138.5" width="275" height="111" rx="23.5" stroke="#F2D7D7"/>
<path d="M78.5852 366.807V353.716H83.0085C84.0313 353.716 84.8707 353.891 85.527 354.241C86.1832 354.586 86.669 355.061 86.9844 355.666C87.2997 356.271 87.4574 356.959 87.4574 357.731C87.4574 358.502 87.2997 359.186 86.9844 359.783C86.669 360.379 86.1854 360.848 85.5334 361.189C84.8814 361.525 84.0483 361.694 83.0341 361.694H79.4545V360.262H82.983C83.6818 360.262 84.2443 360.16 84.6705 359.955C85.1009 359.751 85.4119 359.461 85.6037 359.086C85.7997 358.707 85.8977 358.255 85.8977 357.731C85.8977 357.207 85.7997 356.748 85.6037 356.356C85.4077 355.964 85.0945 355.662 84.6641 355.449C84.2337 355.231 83.6648 355.123 82.9574 355.123H80.1705V366.807H78.5852ZM84.7472 360.927L87.9688 366.807H86.1278L82.9574 360.927H84.7472ZM93.9054 367.012C92.9593 367.012 92.1433 366.803 91.4572 366.385C90.7754 365.964 90.2491 365.376 89.8784 364.621C89.5119 363.863 89.3287 362.981 89.3287 361.975C89.3287 360.969 89.5119 360.083 89.8784 359.316C90.2491 358.545 90.7647 357.944 91.4252 357.513C92.09 357.079 92.8656 356.861 93.752 356.861C94.2633 356.861 94.7683 356.947 95.2669 357.117C95.7654 357.287 96.2193 357.564 96.6284 357.948C97.0375 358.327 97.3635 358.83 97.6064 359.457C97.8493 360.083 97.9707 360.854 97.9707 361.77V362.41H90.4025V361.106H96.4366C96.4366 360.552 96.3258 360.057 96.1042 359.623C95.8869 359.188 95.5758 358.845 95.171 358.594C94.7704 358.342 94.2974 358.216 93.752 358.216C93.1511 358.216 92.6312 358.366 92.1923 358.664C91.7576 358.958 91.4231 359.341 91.1887 359.814C90.9544 360.287 90.8372 360.795 90.8372 361.336V362.205C90.8372 362.947 90.965 363.575 91.2207 364.091C91.4806 364.602 91.8407 364.992 92.301 365.26C92.7612 365.525 93.296 365.657 93.9054 365.657C94.3017 365.657 94.6596 365.601 94.9792 365.491C95.3031 365.376 95.5822 365.205 95.8166 364.979C96.051 364.749 96.2321 364.464 96.3599 364.123L97.8173 364.532C97.6639 365.026 97.4061 365.461 97.0439 365.836C96.6816 366.207 96.2342 366.496 95.7015 366.705C95.1689 366.91 94.5701 367.012 93.9054 367.012ZM100.265 370.489V356.989H101.723V358.549H101.902C102.013 358.378 102.166 358.161 102.362 357.897C102.562 357.628 102.848 357.39 103.219 357.181C103.594 356.968 104.101 356.861 104.74 356.861C105.567 356.861 106.295 357.068 106.926 357.481C107.557 357.895 108.049 358.481 108.403 359.239C108.756 359.998 108.933 360.893 108.933 361.924C108.933 362.964 108.756 363.865 108.403 364.628C108.049 365.386 107.559 365.974 106.932 366.392C106.306 366.805 105.584 367.012 104.765 367.012C104.135 367.012 103.63 366.908 103.251 366.699C102.871 366.486 102.579 366.245 102.375 365.976C102.17 365.704 102.013 365.478 101.902 365.299H101.774V370.489H100.265ZM101.748 361.898C101.748 362.64 101.857 363.294 102.074 363.861C102.292 364.423 102.609 364.864 103.027 365.184C103.444 365.499 103.956 365.657 104.561 365.657C105.192 365.657 105.718 365.491 106.14 365.158C106.566 364.822 106.885 364.37 107.099 363.803C107.316 363.232 107.425 362.597 107.425 361.898C107.425 361.208 107.318 360.586 107.105 360.032C106.896 359.474 106.579 359.033 106.153 358.709C105.731 358.381 105.2 358.216 104.561 358.216C103.947 358.216 103.432 358.372 103.014 358.683C102.596 358.99 102.281 359.42 102.068 359.974C101.855 360.524 101.748 361.165 101.748 361.898ZM115.223 367.012C114.336 367.012 113.559 366.801 112.89 366.379C112.225 365.957 111.705 365.367 111.33 364.609C110.959 363.85 110.774 362.964 110.774 361.949C110.774 360.927 110.959 360.034 111.33 359.271C111.705 358.508 112.225 357.916 112.89 357.494C113.559 357.072 114.336 356.861 115.223 356.861C116.109 356.861 116.885 357.072 117.55 357.494C118.219 357.916 118.738 358.508 119.109 359.271C119.484 360.034 119.672 360.927 119.672 361.949C119.672 362.964 119.484 363.85 119.109 364.609C118.738 365.367 118.219 365.957 117.55 366.379C116.885 366.801 116.109 367.012 115.223 367.012ZM115.223 365.657C115.896 365.657 116.45 365.484 116.885 365.139C117.319 364.794 117.641 364.34 117.85 363.778C118.059 363.215 118.163 362.606 118.163 361.949C118.163 361.293 118.059 360.682 117.85 360.115C117.641 359.548 117.319 359.09 116.885 358.741C116.45 358.391 115.896 358.216 115.223 358.216C114.55 358.216 113.996 358.391 113.561 358.741C113.126 359.09 112.805 359.548 112.596 360.115C112.387 360.682 112.282 361.293 112.282 361.949C112.282 362.606 112.387 363.215 112.596 363.778C112.805 364.34 113.126 364.794 113.561 365.139C113.996 365.484 114.55 365.657 115.223 365.657ZM121.974 366.807V356.989H123.432V358.472H123.534C123.713 357.986 124.037 357.592 124.506 357.29C124.974 356.987 125.503 356.836 126.091 356.836C126.202 356.836 126.34 356.838 126.506 356.842C126.673 356.846 126.798 356.853 126.884 356.861V358.395C126.832 358.383 126.715 358.363 126.532 358.338C126.353 358.308 126.163 358.293 125.963 358.293C125.486 358.293 125.06 358.393 124.685 358.594C124.314 358.79 124.02 359.062 123.803 359.412C123.589 359.757 123.483 360.151 123.483 360.594V366.807H121.974ZM133.557 356.989V358.268H128.469V356.989H133.557ZM129.952 354.637H131.46V363.995C131.46 364.421 131.522 364.741 131.646 364.954C131.773 365.162 131.935 365.303 132.131 365.376C132.332 365.444 132.543 365.478 132.764 365.478C132.93 365.478 133.067 365.469 133.173 365.452C133.28 365.431 133.365 365.414 133.429 365.401L133.736 366.756C133.634 366.795 133.491 366.833 133.308 366.871C133.124 366.914 132.892 366.935 132.611 366.935C132.185 366.935 131.767 366.844 131.358 366.66C130.953 366.477 130.616 366.198 130.348 365.823C130.084 365.448 129.952 364.975 129.952 364.404V354.637ZM143.778 367.037C143.156 367.037 142.591 366.92 142.084 366.686C141.577 366.447 141.174 366.104 140.876 365.657C140.577 365.205 140.428 364.66 140.428 364.02C140.428 363.458 140.539 363.002 140.761 362.653C140.982 362.299 141.278 362.022 141.649 361.822C142.02 361.621 142.429 361.472 142.876 361.374C143.328 361.272 143.782 361.191 144.238 361.131C144.835 361.055 145.318 360.997 145.689 360.959C146.064 360.916 146.337 360.846 146.507 360.748C146.682 360.65 146.769 360.479 146.769 360.236V360.185C146.769 359.555 146.597 359.064 146.251 358.715C145.911 358.366 145.393 358.191 144.698 358.191C143.978 358.191 143.413 358.349 143.004 358.664C142.595 358.979 142.308 359.316 142.141 359.674L140.71 359.162C140.965 358.566 141.306 358.101 141.732 357.769C142.163 357.432 142.631 357.198 143.138 357.066C143.65 356.93 144.153 356.861 144.647 356.861C144.962 356.861 145.325 356.9 145.734 356.976C146.147 357.049 146.545 357.2 146.929 357.43C147.317 357.66 147.638 358.008 147.894 358.472C148.15 358.937 148.278 359.559 148.278 360.339V366.807H146.769V365.478H146.692C146.59 365.691 146.42 365.919 146.181 366.162C145.942 366.405 145.625 366.611 145.229 366.782C144.832 366.952 144.349 367.037 143.778 367.037ZM144.008 365.682C144.604 365.682 145.107 365.565 145.516 365.331C145.93 365.096 146.241 364.794 146.45 364.423C146.663 364.052 146.769 363.662 146.769 363.253V361.873C146.705 361.949 146.565 362.02 146.347 362.084C146.134 362.143 145.887 362.197 145.606 362.243C145.329 362.286 145.058 362.324 144.794 362.359C144.534 362.388 144.323 362.414 144.161 362.435C143.769 362.486 143.403 362.569 143.062 362.685C142.725 362.795 142.452 362.964 142.244 363.189C142.039 363.411 141.937 363.714 141.937 364.097C141.937 364.621 142.131 365.018 142.518 365.286C142.911 365.55 143.407 365.682 144.008 365.682ZM152.54 360.901V366.807H151.031V356.989H152.488V358.523H152.616C152.846 358.025 153.196 357.624 153.665 357.322C154.133 357.015 154.738 356.861 155.48 356.861C156.145 356.861 156.726 356.998 157.225 357.27C157.724 357.539 158.111 357.948 158.388 358.498C158.665 359.043 158.804 359.734 158.804 360.569V366.807H157.295V360.671C157.295 359.9 157.095 359.299 156.694 358.868C156.294 358.434 155.744 358.216 155.045 358.216C154.564 358.216 154.133 358.321 153.754 358.53C153.379 358.738 153.083 359.043 152.866 359.444C152.648 359.844 152.54 360.33 152.54 360.901ZM165.268 367.012C164.45 367.012 163.727 366.805 163.101 366.392C162.474 365.974 161.984 365.386 161.631 364.628C161.277 363.865 161.1 362.964 161.1 361.924C161.1 360.893 161.277 359.998 161.631 359.239C161.984 358.481 162.477 357.895 163.107 357.481C163.738 357.068 164.467 356.861 165.293 356.861C165.933 356.861 166.438 356.968 166.808 357.181C167.183 357.39 167.469 357.628 167.665 357.897C167.865 358.161 168.021 358.378 168.131 358.549H168.259V353.716H169.768V366.807H168.31V365.299H168.131C168.021 365.478 167.863 365.704 167.658 365.976C167.454 366.245 167.162 366.486 166.783 366.699C166.403 366.908 165.898 367.012 165.268 367.012ZM165.472 365.657C166.077 365.657 166.589 365.499 167.006 365.184C167.424 364.864 167.741 364.423 167.959 363.861C168.176 363.294 168.285 362.64 168.285 361.898C168.285 361.165 168.178 360.524 167.965 359.974C167.752 359.42 167.437 358.99 167.019 358.683C166.602 358.372 166.086 358.216 165.472 358.216C164.833 358.216 164.3 358.381 163.874 358.709C163.452 359.033 163.135 359.474 162.922 360.032C162.713 360.586 162.609 361.208 162.609 361.898C162.609 362.597 162.715 363.232 162.928 363.803C163.146 364.37 163.465 364.822 163.887 365.158C164.313 365.491 164.842 365.657 165.472 365.657ZM178.544 366.807H176.882L181.689 353.716H183.325L188.132 366.807H186.47L182.558 355.787H182.456L178.544 366.807ZM179.158 361.694H185.857V363.1H179.158V361.694ZM191.475 353.716V366.807H189.967V353.716H191.475ZM198.355 367.012C197.409 367.012 196.593 366.803 195.906 366.385C195.225 365.964 194.698 365.376 194.328 364.621C193.961 363.863 193.778 362.981 193.778 361.975C193.778 360.969 193.961 360.083 194.328 359.316C194.698 358.545 195.214 357.944 195.874 357.513C196.539 357.079 197.315 356.861 198.201 356.861C198.713 356.861 199.218 356.947 199.716 357.117C200.215 357.287 200.669 357.564 201.078 357.948C201.487 358.327 201.813 358.83 202.056 359.457C202.298 360.083 202.42 360.854 202.42 361.77V362.41H194.852V361.106H200.886C200.886 360.552 200.775 360.057 200.553 359.623C200.336 359.188 200.025 358.845 199.62 358.594C199.22 358.342 198.747 358.216 198.201 358.216C197.6 358.216 197.08 358.366 196.642 358.664C196.207 358.958 195.872 359.341 195.638 359.814C195.404 360.287 195.286 360.795 195.286 361.336V362.205C195.286 362.947 195.414 363.575 195.67 364.091C195.93 364.602 196.29 364.992 196.75 365.26C197.21 365.525 197.745 365.657 198.355 365.657C198.751 365.657 199.109 365.601 199.428 365.491C199.752 365.376 200.031 365.205 200.266 364.979C200.5 364.749 200.681 364.464 200.809 364.123L202.267 364.532C202.113 365.026 201.855 365.461 201.493 365.836C201.131 366.207 200.683 366.496 200.151 366.705C199.618 366.91 199.019 367.012 198.355 367.012ZM204.715 366.807V356.989H206.172V358.472H206.274C206.453 357.986 206.777 357.592 207.246 357.29C207.715 356.987 208.243 356.836 208.831 356.836C208.942 356.836 209.08 356.838 209.247 356.842C209.413 356.846 209.539 356.853 209.624 356.861V358.395C209.573 358.383 209.455 358.363 209.272 358.338C209.093 358.308 208.904 358.293 208.703 358.293C208.226 358.293 207.8 358.393 207.425 358.594C207.054 358.79 206.76 359.062 206.543 359.412C206.33 359.757 206.223 360.151 206.223 360.594V366.807H204.715ZM216.297 356.989V358.268H211.209V356.989H216.297ZM212.692 354.637H214.2V363.995C214.2 364.421 214.262 364.741 214.386 364.954C214.514 365.162 214.676 365.303 214.872 365.376C215.072 365.444 215.283 365.478 215.504 365.478C215.671 365.478 215.807 365.469 215.914 365.452C216.02 365.431 216.105 365.414 216.169 365.401L216.476 366.756C216.374 366.795 216.231 366.833 216.048 366.871C215.865 366.914 215.632 366.935 215.351 366.935C214.925 366.935 214.507 366.844 214.098 366.66C213.693 366.477 213.357 366.198 213.088 365.823C212.824 365.448 212.692 364.975 212.692 364.404V354.637Z" fill="#111218"/>
<path d="M79.6548 378.626V388.807H78.1186V378.626H79.6548ZM87.495 383.035L86.1477 383.274C86.0914 383.102 86.0019 382.938 85.8793 382.782C85.7599 382.626 85.5975 382.498 85.392 382.399C85.1866 382.3 84.9297 382.25 84.6214 382.25C84.2005 382.25 83.8492 382.344 83.5675 382.533C83.2857 382.719 83.1449 382.959 83.1449 383.254C83.1449 383.509 83.2393 383.715 83.4283 383.871C83.6172 384.026 83.9221 384.154 84.343 384.253L85.5561 384.532C86.2588 384.694 86.7824 384.944 87.1271 385.283C87.4718 385.621 87.6442 386.06 87.6442 386.6C87.6442 387.057 87.5116 387.465 87.2464 387.823C86.9846 388.178 86.6184 388.456 86.1477 388.658C85.6804 388.86 85.1385 388.961 84.522 388.961C83.6669 388.961 82.9692 388.779 82.429 388.415C81.8887 388.047 81.5573 387.525 81.4347 386.849L82.8714 386.63C82.9609 387.004 83.1449 387.288 83.4233 387.48C83.7017 387.669 84.0646 387.763 84.5121 387.763C84.9993 387.763 85.3887 387.662 85.6804 387.46C85.9721 387.255 86.1179 387.004 86.1179 386.709C86.1179 386.471 86.0284 386.27 85.8494 386.108C85.6738 385.945 85.4036 385.823 85.0391 385.74L83.7464 385.457C83.0339 385.294 82.5069 385.036 82.1655 384.681C81.8274 384.326 81.6584 383.877 81.6584 383.334C81.6584 382.883 81.7843 382.488 82.0362 382.15C82.2881 381.812 82.6361 381.549 83.0803 381.36C83.5244 381.168 84.0331 381.072 84.6065 381.072C85.4318 381.072 86.0814 381.251 86.5554 381.609C87.0294 381.963 87.3426 382.439 87.495 383.035ZM95.0009 383.035L93.6536 383.274C93.5972 383.102 93.5078 382.938 93.3851 382.782C93.2658 382.626 93.1034 382.498 92.8979 382.399C92.6924 382.3 92.4355 382.25 92.1273 382.25C91.7064 382.25 91.3551 382.344 91.0733 382.533C90.7916 382.719 90.6507 382.959 90.6507 383.254C90.6507 383.509 90.7452 383.715 90.9341 383.871C91.123 384.026 91.428 384.154 91.8489 384.253L93.062 384.532C93.7646 384.694 94.2883 384.944 94.633 385.283C94.9777 385.621 95.15 386.06 95.15 386.6C95.15 387.057 95.0175 387.465 94.7523 387.823C94.4905 388.178 94.1242 388.456 93.6536 388.658C93.1863 388.86 92.6444 388.961 92.0279 388.961C91.1728 388.961 90.4751 388.779 89.9348 388.415C89.3946 388.047 89.0632 387.525 88.9405 386.849L90.3773 386.63C90.4668 387.004 90.6507 387.288 90.9292 387.48C91.2076 387.669 91.5705 387.763 92.0179 387.763C92.5051 387.763 92.8946 387.662 93.1863 387.46C93.4779 387.255 93.6238 387.004 93.6238 386.709C93.6238 386.471 93.5343 386.27 93.3553 386.108C93.1796 385.945 92.9095 385.823 92.5449 385.74L91.2523 385.457C90.5397 385.294 90.0127 385.036 89.6713 384.681C89.3333 384.326 89.1642 383.877 89.1642 383.334C89.1642 382.883 89.2902 382.488 89.5421 382.15C89.794 381.812 90.142 381.549 90.5861 381.36C91.0302 381.168 91.539 381.072 92.1124 381.072C92.9377 381.072 93.5873 381.251 94.0613 381.609C94.5352 381.963 94.8484 382.439 95.0009 383.035ZM101.622 385.64V381.171H103.113V388.807H101.652V387.485H101.572C101.396 387.893 101.115 388.232 100.727 388.504C100.342 388.773 99.8635 388.907 99.2901 388.907C98.7996 388.907 98.3654 388.799 97.9876 388.584C97.613 388.365 97.3181 388.042 97.1026 387.614C96.8905 387.187 96.7844 386.658 96.7844 386.028V381.171H98.271V385.849C98.271 386.37 98.4151 386.784 98.7035 387.092C98.9918 387.4 99.3664 387.555 99.8271 387.555C100.105 387.555 100.382 387.485 100.657 387.346C100.936 387.207 101.166 386.996 101.348 386.714C101.534 386.433 101.625 386.075 101.622 385.64ZM108.402 388.961C107.649 388.961 107.001 388.801 106.458 388.479C105.918 388.154 105.5 387.699 105.205 387.112C104.913 386.522 104.768 385.831 104.768 385.039C104.768 384.257 104.913 383.567 105.205 382.971C105.5 382.374 105.911 381.908 106.438 381.574C106.968 381.239 107.588 381.072 108.297 381.072C108.728 381.072 109.146 381.143 109.55 381.285C109.955 381.428 110.318 381.652 110.639 381.957C110.961 382.261 111.214 382.658 111.4 383.145C111.585 383.629 111.678 384.217 111.678 384.91V385.437H105.608V384.323H110.221C110.221 383.932 110.142 383.586 109.983 383.284C109.824 382.979 109.6 382.739 109.312 382.563C109.027 382.387 108.692 382.3 108.307 382.3C107.89 382.3 107.525 382.402 107.214 382.608C106.905 382.81 106.667 383.075 106.498 383.403C106.332 383.728 106.249 384.081 106.249 384.462V385.332C106.249 385.843 106.339 386.277 106.518 386.635C106.7 386.993 106.953 387.266 107.278 387.455C107.603 387.641 107.983 387.734 108.417 387.734C108.698 387.734 108.955 387.694 109.187 387.614C109.419 387.531 109.62 387.409 109.789 387.246C109.958 387.084 110.087 386.883 110.177 386.645L111.584 386.898C111.471 387.313 111.269 387.676 110.977 387.987C110.689 388.295 110.326 388.536 109.888 388.708C109.454 388.877 108.959 388.961 108.402 388.961ZM118.012 388.807H116.381L120.045 378.626H121.82L125.484 388.807H123.854L120.975 380.475H120.895L118.012 388.807ZM118.285 384.82H123.575V386.113H118.285V384.82ZM128.322 378.626V388.807H126.835V378.626H128.322ZM133.613 388.961C132.86 388.961 132.212 388.801 131.669 388.479C131.129 388.154 130.711 387.699 130.416 387.112C130.124 386.522 129.979 385.831 129.979 385.039C129.979 384.257 130.124 383.567 130.416 382.971C130.711 382.374 131.122 381.908 131.649 381.574C132.179 381.239 132.799 381.072 133.508 381.072C133.939 381.072 134.357 381.143 134.761 381.285C135.166 381.428 135.528 381.652 135.85 381.957C136.171 382.261 136.425 382.658 136.611 383.145C136.796 383.629 136.889 384.217 136.889 384.91V385.437H130.819V384.323H135.432C135.432 383.932 135.353 383.586 135.194 383.284C135.035 382.979 134.811 382.739 134.523 382.563C134.238 382.387 133.903 382.3 133.518 382.3C133.101 382.3 132.736 382.402 132.425 382.608C132.116 382.81 131.878 383.075 131.709 383.403C131.543 383.728 131.46 384.081 131.46 384.462V385.332C131.46 385.843 131.55 386.277 131.729 386.635C131.911 386.993 132.164 387.266 132.489 387.455C132.814 387.641 133.193 387.734 133.628 387.734C133.909 387.734 134.166 387.694 134.398 387.614C134.63 387.531 134.831 387.409 135 387.246C135.169 387.084 135.298 386.883 135.388 386.645L136.795 386.898C136.682 387.313 136.48 387.676 136.188 387.987C135.9 388.295 135.537 388.536 135.099 388.708C134.665 388.877 134.17 388.961 133.613 388.961ZM138.538 388.807V381.171H139.975V382.384H140.055C140.194 381.973 140.439 381.65 140.79 381.415C141.145 381.176 141.546 381.057 141.994 381.057C142.086 381.057 142.196 381.06 142.322 381.067C142.451 381.073 142.552 381.082 142.625 381.091V382.513C142.565 382.497 142.459 382.479 142.307 382.459C142.154 382.435 142.002 382.424 141.849 382.424C141.498 382.424 141.185 382.498 140.91 382.648C140.638 382.793 140.423 382.997 140.263 383.259C140.104 383.518 140.025 383.813 140.025 384.144V388.807H138.538ZM147.927 381.171V382.364H143.756V381.171H147.927ZM144.875 379.341H146.361V386.565C146.361 386.854 146.404 387.071 146.49 387.216C146.577 387.359 146.688 387.457 146.824 387.51C146.963 387.56 147.114 387.584 147.276 387.584C147.395 387.584 147.5 387.576 147.589 387.56C147.679 387.543 147.748 387.53 147.798 387.52L148.066 388.748C147.98 388.781 147.858 388.814 147.699 388.847C147.539 388.884 147.341 388.903 147.102 388.907C146.711 388.913 146.346 388.844 146.008 388.698C145.67 388.552 145.397 388.327 145.188 388.022C144.979 387.717 144.875 387.334 144.875 386.873V379.341ZM155.171 383.035L153.824 383.274C153.767 383.102 153.678 382.938 153.555 382.782C153.436 382.626 153.273 382.498 153.068 382.399C152.862 382.3 152.605 382.25 152.297 382.25C151.876 382.25 151.525 382.344 151.243 382.533C150.962 382.719 150.821 382.959 150.821 383.254C150.821 383.509 150.915 383.715 151.104 383.871C151.293 384.026 151.598 384.154 152.019 384.253L153.232 384.532C153.935 384.694 154.458 384.944 154.803 385.283C155.148 385.621 155.32 386.06 155.32 386.6C155.32 387.057 155.187 387.465 154.922 387.823C154.66 388.178 154.294 388.456 153.824 388.658C153.356 388.86 152.814 388.961 152.198 388.961C151.343 388.961 150.645 388.779 150.105 388.415C149.565 388.047 149.233 387.525 149.11 386.849L150.547 386.63C150.637 387.004 150.821 387.288 151.099 387.48C151.377 387.669 151.74 387.763 152.188 387.763C152.675 387.763 153.065 387.662 153.356 387.46C153.648 387.255 153.794 387.004 153.794 386.709C153.794 386.471 153.704 386.27 153.525 386.108C153.35 385.945 153.079 385.823 152.715 385.74L151.422 385.457C150.71 385.294 150.183 385.036 149.841 384.681C149.503 384.326 149.334 383.877 149.334 383.334C149.334 382.883 149.46 382.488 149.712 382.15C149.964 381.812 150.312 381.549 150.756 381.36C151.2 381.168 151.709 381.072 152.282 381.072C153.108 381.072 153.757 381.251 154.231 381.609C154.705 381.963 155.018 382.439 155.171 383.035ZM162.882 388.976C162.398 388.976 161.96 388.887 161.569 388.708C161.178 388.526 160.868 388.262 160.64 387.917C160.414 387.573 160.301 387.15 160.301 386.65C160.301 386.219 160.384 385.864 160.55 385.586C160.716 385.307 160.94 385.087 161.221 384.925C161.503 384.762 161.818 384.64 162.166 384.557C162.514 384.474 162.868 384.411 163.23 384.368C163.687 384.315 164.058 384.272 164.343 384.238C164.628 384.202 164.836 384.144 164.965 384.064C165.094 383.985 165.159 383.856 165.159 383.677V383.642C165.159 383.208 165.036 382.871 164.791 382.633C164.549 382.394 164.188 382.275 163.707 382.275C163.207 382.275 162.812 382.386 162.524 382.608C162.239 382.827 162.042 383.07 161.932 383.339L160.535 383.02C160.701 382.556 160.943 382.182 161.261 381.897C161.583 381.609 161.952 381.4 162.37 381.27C162.787 381.138 163.226 381.072 163.687 381.072C163.992 381.072 164.315 381.108 164.657 381.181C165.001 381.251 165.323 381.38 165.621 381.569C165.923 381.758 166.17 382.028 166.362 382.379C166.554 382.727 166.65 383.18 166.65 383.736V388.807H165.199V387.763H165.139C165.043 387.956 164.899 388.144 164.706 388.33C164.514 388.516 164.267 388.67 163.966 388.792C163.664 388.915 163.303 388.976 162.882 388.976ZM163.205 387.783C163.616 387.783 163.967 387.702 164.259 387.54C164.554 387.377 164.778 387.165 164.93 386.903C165.086 386.638 165.164 386.355 165.164 386.053V385.069C165.111 385.122 165.008 385.171 164.855 385.218C164.706 385.261 164.536 385.299 164.343 385.332C164.151 385.362 163.964 385.39 163.782 385.417C163.599 385.44 163.447 385.46 163.324 385.476C163.036 385.513 162.772 385.574 162.534 385.66C162.298 385.747 162.109 385.871 161.967 386.033C161.828 386.192 161.758 386.404 161.758 386.67C161.758 387.037 161.894 387.316 162.166 387.505C162.438 387.69 162.784 387.783 163.205 387.783ZM170.117 384.273V388.807H168.63V381.171H170.057V382.414H170.151C170.327 382.01 170.602 381.685 170.977 381.439C171.355 381.194 171.83 381.072 172.404 381.072C172.924 381.072 173.38 381.181 173.771 381.4C174.162 381.615 174.465 381.937 174.681 382.364C174.896 382.792 175.004 383.32 175.004 383.95V388.807H173.517V384.129C173.517 383.576 173.373 383.143 173.085 382.832C172.796 382.517 172.4 382.359 171.896 382.359C171.552 382.359 171.245 382.434 170.977 382.583C170.712 382.732 170.501 382.951 170.345 383.239C170.193 383.524 170.117 383.869 170.117 384.273ZM179.856 388.957C179.24 388.957 178.689 388.799 178.205 388.484C177.725 388.166 177.347 387.714 177.072 387.127C176.8 386.537 176.664 385.829 176.664 385.004C176.664 384.179 176.802 383.473 177.077 382.886C177.355 382.3 177.736 381.85 178.22 381.539C178.704 381.227 179.253 381.072 179.866 381.072C180.34 381.072 180.721 381.151 181.009 381.31C181.301 381.466 181.526 381.648 181.686 381.857C181.848 382.066 181.974 382.25 182.063 382.409H182.153V378.626H183.639V388.807H182.188V387.619H182.063C181.974 387.782 181.845 387.967 181.676 388.176C181.51 388.385 181.281 388.567 180.99 388.723C180.698 388.879 180.32 388.957 179.856 388.957ZM180.184 387.689C180.612 387.689 180.973 387.576 181.268 387.351C181.566 387.122 181.792 386.805 181.944 386.401C182.1 385.997 182.178 385.526 182.178 384.989C182.178 384.459 182.102 383.995 181.949 383.597C181.797 383.199 181.573 382.89 181.278 382.667C180.983 382.445 180.618 382.334 180.184 382.334C179.737 382.334 179.364 382.45 179.066 382.682C178.767 382.914 178.542 383.231 178.389 383.632C178.24 384.033 178.166 384.485 178.166 384.989C178.166 385.5 178.242 385.959 178.394 386.366C178.547 386.774 178.772 387.097 179.07 387.336C179.372 387.571 179.743 387.689 180.184 387.689ZM189.585 388.807V378.626H191.122V387.485H195.735V388.807H189.585ZM200.585 388.961C199.869 388.961 199.244 388.797 198.711 388.469C198.177 388.141 197.763 387.682 197.468 387.092C197.173 386.502 197.025 385.813 197.025 385.024C197.025 384.232 197.173 383.539 197.468 382.946C197.763 382.353 198.177 381.892 198.711 381.564C199.244 381.236 199.869 381.072 200.585 381.072C201.301 381.072 201.926 381.236 202.459 381.564C202.993 381.892 203.407 382.353 203.702 382.946C203.997 383.539 204.145 384.232 204.145 385.024C204.145 385.813 203.997 386.502 203.702 387.092C203.407 387.682 202.993 388.141 202.459 388.469C201.926 388.797 201.301 388.961 200.585 388.961ZM200.59 387.714C201.054 387.714 201.439 387.591 201.743 387.346C202.048 387.1 202.274 386.774 202.42 386.366C202.569 385.959 202.643 385.51 202.643 385.019C202.643 384.532 202.569 384.084 202.42 383.677C202.274 383.266 202.048 382.936 201.743 382.687C201.439 382.439 201.054 382.314 200.59 382.314C200.123 382.314 199.735 382.439 199.427 382.687C199.122 382.936 198.895 383.266 198.746 383.677C198.6 384.084 198.527 384.532 198.527 385.019C198.527 385.51 198.6 385.959 198.746 386.366C198.895 386.774 199.122 387.1 199.427 387.346C199.735 387.591 200.123 387.714 200.59 387.714ZM209.006 391.83C208.399 391.83 207.877 391.751 207.44 391.591C207.005 391.432 206.651 391.222 206.376 390.96C206.101 390.698 205.895 390.412 205.759 390.1L207.037 389.573C207.126 389.719 207.246 389.873 207.395 390.035C207.547 390.201 207.753 390.342 208.011 390.458C208.273 390.574 208.61 390.632 209.021 390.632C209.584 390.632 210.05 390.494 210.418 390.219C210.786 389.948 210.969 389.513 210.969 388.917V387.415H210.875C210.786 387.578 210.656 387.758 210.487 387.957C210.321 388.156 210.093 388.328 209.801 388.474C209.509 388.62 209.13 388.693 208.663 388.693C208.059 388.693 207.516 388.552 207.032 388.27C206.551 387.985 206.17 387.566 205.888 387.013C205.61 386.456 205.471 385.771 205.471 384.959C205.471 384.147 205.608 383.451 205.884 382.871C206.162 382.291 206.543 381.847 207.027 381.539C207.511 381.227 208.059 381.072 208.673 381.072C209.147 381.072 209.529 381.151 209.821 381.31C210.113 381.466 210.34 381.648 210.502 381.857C210.668 382.066 210.795 382.25 210.885 382.409H210.994V381.171H212.451V388.976C212.451 389.633 212.299 390.171 211.994 390.592C211.689 391.013 211.276 391.325 210.756 391.527C210.239 391.729 209.655 391.83 209.006 391.83ZM208.991 387.46C209.418 387.46 209.78 387.361 210.075 387.162C210.373 386.96 210.598 386.671 210.751 386.297C210.906 385.919 210.984 385.466 210.984 384.939C210.984 384.426 210.908 383.973 210.756 383.582C210.603 383.191 210.379 382.886 210.085 382.667C209.79 382.445 209.425 382.334 208.991 382.334C208.543 382.334 208.17 382.45 207.872 382.682C207.574 382.911 207.348 383.223 207.196 383.617C207.047 384.011 206.972 384.452 206.972 384.939C206.972 385.44 207.049 385.879 207.201 386.257C207.353 386.635 207.579 386.93 207.877 387.142C208.179 387.354 208.55 387.46 208.991 387.46ZM219.805 378.626V388.807H218.269V378.626H219.805ZM223.41 384.273V388.807H221.923V381.171H223.35V382.414H223.444C223.62 382.01 223.895 381.685 224.27 381.439C224.648 381.194 225.123 381.072 225.697 381.072C226.217 381.072 226.673 381.181 227.064 381.4C227.455 381.615 227.758 381.937 227.974 382.364C228.189 382.792 228.297 383.32 228.297 383.95V388.807H226.81V384.129C226.81 383.576 226.666 383.143 226.378 382.832C226.089 382.517 225.693 382.359 225.189 382.359C224.845 382.359 224.538 382.434 224.27 382.583C224.005 382.732 223.794 382.951 223.638 383.239C223.486 383.524 223.41 383.869 223.41 384.273ZM233.507 388.961C232.768 388.961 232.131 388.794 231.598 388.459C231.068 388.121 230.66 387.656 230.375 387.062C230.09 386.469 229.947 385.79 229.947 385.024C229.947 384.248 230.093 383.564 230.385 382.971C230.676 382.374 231.087 381.908 231.618 381.574C232.148 381.239 232.773 381.072 233.492 381.072C234.072 381.072 234.589 381.179 235.043 381.395C235.497 381.607 235.863 381.905 236.142 382.29C236.424 382.674 236.591 383.123 236.644 383.637H235.197C235.118 383.279 234.935 382.971 234.65 382.712C234.369 382.454 233.991 382.324 233.517 382.324C233.103 382.324 232.74 382.434 232.428 382.653C232.12 382.868 231.88 383.176 231.707 383.577C231.535 383.975 231.449 384.446 231.449 384.989C231.449 385.546 231.533 386.027 231.702 386.431C231.871 386.835 232.11 387.149 232.418 387.371C232.73 387.593 233.096 387.704 233.517 387.704C233.799 387.704 234.054 387.652 234.282 387.55C234.515 387.443 234.708 387.293 234.864 387.097C235.023 386.902 235.134 386.666 235.197 386.391H236.644C236.591 386.885 236.43 387.326 236.162 387.714C235.893 388.101 235.534 388.406 235.083 388.628C234.635 388.85 234.11 388.961 233.507 388.961ZM238.234 388.807V381.171H239.72V388.807H238.234ZM238.984 379.993C238.726 379.993 238.504 379.907 238.318 379.734C238.136 379.559 238.045 379.35 238.045 379.108C238.045 378.863 238.136 378.654 238.318 378.481C238.504 378.306 238.726 378.218 238.984 378.218C239.243 378.218 239.463 378.306 239.646 378.481C239.831 378.654 239.924 378.863 239.924 379.108C239.924 379.35 239.831 379.559 239.646 379.734C239.463 379.907 239.243 379.993 238.984 379.993ZM244.579 388.957C243.962 388.957 243.412 388.799 242.928 388.484C242.448 388.166 242.07 387.714 241.795 387.127C241.523 386.537 241.387 385.829 241.387 385.004C241.387 384.179 241.524 383.473 241.8 382.886C242.078 382.3 242.459 381.85 242.943 381.539C243.427 381.227 243.975 381.072 244.589 381.072C245.063 381.072 245.444 381.151 245.732 381.31C246.024 381.466 246.249 381.648 246.408 381.857C246.571 382.066 246.697 382.25 246.786 382.409H246.876V378.626H248.362V388.807H246.91V387.619H246.786C246.697 387.782 246.567 387.967 246.398 388.176C246.233 388.385 246.004 388.567 245.712 388.723C245.421 388.879 245.043 388.957 244.579 388.957ZM244.907 387.689C245.334 387.689 245.696 387.576 245.991 387.351C246.289 387.122 246.514 386.805 246.667 386.401C246.823 385.997 246.9 385.526 246.9 384.989C246.9 384.459 246.824 383.995 246.672 383.597C246.519 383.199 246.296 382.89 246.001 382.667C245.706 382.445 245.341 382.334 244.907 382.334C244.459 382.334 244.086 382.45 243.788 382.682C243.49 382.914 243.265 383.231 243.112 383.632C242.963 384.033 242.888 384.485 242.888 384.989C242.888 385.5 242.965 385.959 243.117 386.366C243.269 386.774 243.495 387.097 243.793 387.336C244.095 387.571 244.466 387.689 244.907 387.689ZM253.775 388.961C253.022 388.961 252.375 388.801 251.831 388.479C251.291 388.154 250.873 387.699 250.578 387.112C250.286 386.522 250.141 385.831 250.141 385.039C250.141 384.257 250.286 383.567 250.578 382.971C250.873 382.374 251.284 381.908 251.811 381.574C252.341 381.239 252.961 381.072 253.67 381.072C254.101 381.072 254.519 381.143 254.923 381.285C255.328 381.428 255.691 381.652 256.012 381.957C256.334 382.261 256.587 382.658 256.773 383.145C256.958 383.629 257.051 384.217 257.051 384.91V385.437H250.981V384.323H255.594C255.594 383.932 255.515 383.586 255.356 383.284C255.197 382.979 254.973 382.739 254.685 382.563C254.4 382.387 254.065 382.3 253.68 382.3C253.263 382.3 252.898 382.402 252.587 382.608C252.278 382.81 252.04 383.075 251.871 383.403C251.705 383.728 251.622 384.081 251.622 384.462V385.332C251.622 385.843 251.712 386.277 251.891 386.635C252.073 386.993 252.326 387.266 252.651 387.455C252.976 387.641 253.356 387.734 253.79 387.734C254.071 387.734 254.328 387.694 254.56 387.614C254.792 387.531 254.993 387.409 255.162 387.246C255.331 387.084 255.46 386.883 255.55 386.645L256.957 386.898C256.844 387.313 256.642 387.676 256.35 387.987C256.062 388.295 255.699 388.536 255.261 388.708C254.827 388.877 254.332 388.961 253.775 388.961ZM260.187 384.273V388.807H258.7V381.171H260.127V382.414H260.222C260.397 382.01 260.673 381.685 261.047 381.439C261.425 381.194 261.901 381.072 262.474 381.072C262.994 381.072 263.45 381.181 263.841 381.4C264.232 381.615 264.535 381.937 264.751 382.364C264.966 382.792 265.074 383.32 265.074 383.95V388.807H263.588V384.129C263.588 383.576 263.443 383.143 263.155 382.832C262.867 382.517 262.471 382.359 261.967 382.359C261.622 382.359 261.316 382.434 261.047 382.583C260.782 382.732 260.571 382.951 260.416 383.239C260.263 383.524 260.187 383.869 260.187 384.273ZM270.632 381.171V382.364H266.461V381.171H270.632ZM267.58 379.341H269.066V386.565C269.066 386.854 269.109 387.071 269.195 387.216C269.282 387.359 269.393 387.457 269.529 387.51C269.668 387.56 269.819 387.584 269.981 387.584C270.1 387.584 270.205 387.576 270.294 387.56C270.384 387.543 270.453 387.53 270.503 387.52L270.771 388.748C270.685 388.781 270.563 388.814 270.404 388.847C270.244 388.884 270.046 388.903 269.807 388.907C269.416 388.913 269.051 388.844 268.713 388.698C268.375 388.552 268.102 388.327 267.893 388.022C267.684 387.717 267.58 387.334 267.58 386.873V379.341ZM277.876 383.035L276.529 383.274C276.472 383.102 276.383 382.938 276.26 382.782C276.141 382.626 275.978 382.498 275.773 382.399C275.567 382.3 275.311 382.25 275.002 382.25C274.581 382.25 274.23 382.344 273.948 382.533C273.667 382.719 273.526 382.959 273.526 383.254C273.526 383.509 273.62 383.715 273.809 383.871C273.998 384.026 274.303 384.154 274.724 384.253L275.937 384.532C276.64 384.694 277.163 384.944 277.508 385.283C277.853 385.621 278.025 386.06 278.025 386.6C278.025 387.057 277.892 387.465 277.627 387.823C277.365 388.178 276.999 388.456 276.529 388.658C276.061 388.86 275.519 388.961 274.903 388.961C274.048 388.961 273.35 388.779 272.81 388.415C272.27 388.047 271.938 387.525 271.816 386.849L273.252 386.63C273.342 387.004 273.526 387.288 273.804 387.48C274.083 387.669 274.445 387.763 274.893 387.763C275.38 387.763 275.77 387.662 276.061 387.46C276.353 387.255 276.499 387.004 276.499 386.709C276.499 386.471 276.409 386.27 276.23 386.108C276.055 385.945 275.785 385.823 275.42 385.74L274.127 385.457C273.415 385.294 272.888 385.036 272.546 384.681C272.208 384.326 272.039 383.877 272.039 383.334C272.039 382.883 272.165 382.488 272.417 382.15C272.669 381.812 273.017 381.549 273.461 381.36C273.905 381.168 274.414 381.072 274.987 381.072C275.813 381.072 276.462 381.251 276.936 381.609C277.41 381.963 277.723 382.439 277.876 383.035Z" fill="#111218"/>
<rect x="71" y="163" width="248" height="69.8074" rx="14.6963" fill="url(#paint0_linear_325_2385)"/>
<path d="M106.798 186.881H97.6619L91.2078 193.336V202.472L97.6619 208.926H106.798L113.252 202.472V193.336L106.798 186.881ZM110.803 201.455L105.782 206.477H98.6784L93.6571 201.455V194.352L98.6784 189.331H105.782L110.803 194.352V201.455Z" fill="#F5F5F7"/>
<path d="M102.23 204.027C102.906 204.027 103.455 203.479 103.455 202.802C103.455 202.126 102.906 201.578 102.23 201.578C101.553 201.578 101.005 202.126 101.005 202.802C101.005 203.479 101.553 204.027 102.23 204.027Z" fill="white"/>
<path d="M101.005 191.78H103.455V200.353H101.005V191.78Z" fill="white"/>
<path d="M134.504 193.772V197.962H137.039C137.739 197.962 138.28 197.779 138.662 197.413C139.044 197.047 139.235 196.53 139.235 195.863C139.235 195.212 139.036 194.701 138.638 194.329C138.239 193.958 137.69 193.772 136.991 193.772H134.504ZM134.504 199.423V203.904H132.696V192.254H137.209C138.404 192.254 139.351 192.577 140.05 193.223C140.75 193.864 141.1 194.727 141.1 195.815C141.1 196.606 140.898 197.3 140.494 197.897C140.096 198.489 139.545 198.904 138.84 199.141L141.447 203.904H139.364L136.991 199.423H134.504ZM147.639 197.276C147.257 196.867 146.764 196.662 146.162 196.662C145.559 196.662 145.058 196.869 144.66 197.284C144.262 197.693 144.041 198.223 143.998 198.874H148.244C148.223 198.218 148.021 197.685 147.639 197.276ZM148.236 201.409H149.891C149.768 202.19 149.369 202.827 148.697 203.322C148.024 203.818 147.203 204.065 146.234 204.065C144.991 204.065 144.012 203.675 143.296 202.895C142.585 202.109 142.23 201.043 142.23 199.698C142.23 198.363 142.585 197.289 143.296 196.477C144.012 195.664 144.967 195.258 146.162 195.258C147.335 195.258 148.266 195.642 148.955 196.412C149.644 197.176 149.988 198.204 149.988 199.496V200.093H143.99V200.198C143.99 200.941 144.197 201.536 144.612 201.982C145.026 202.429 145.58 202.652 146.275 202.652C146.764 202.652 147.184 202.539 147.534 202.313C147.884 202.087 148.118 201.786 148.236 201.409ZM155.768 195.274C156.85 195.274 157.717 195.669 158.368 196.46C159.019 197.252 159.345 198.317 159.345 199.657C159.345 200.997 159.022 202.066 158.376 202.862C157.73 203.653 156.872 204.049 155.801 204.049C155.198 204.049 154.662 203.912 154.194 203.637C153.731 203.363 153.376 202.986 153.129 202.507H153.088V206.713H151.344V195.411H153.032V196.872H153.064C153.317 196.377 153.68 195.987 154.154 195.702C154.627 195.416 155.166 195.274 155.768 195.274ZM155.308 202.572C155.997 202.572 156.543 202.311 156.947 201.789C157.351 201.261 157.553 200.551 157.553 199.657C157.553 198.769 157.351 198.062 156.947 197.534C156.543 197.007 155.997 196.743 155.308 196.743C154.641 196.743 154.103 197.009 153.694 197.542C153.285 198.075 153.08 198.78 153.08 199.657C153.08 200.54 153.282 201.248 153.686 201.781C154.095 202.308 154.636 202.572 155.308 202.572ZM167.272 202.886C166.54 203.672 165.564 204.065 164.342 204.065C163.12 204.065 162.143 203.672 161.411 202.886C160.679 202.095 160.313 201.019 160.313 199.657C160.313 198.301 160.679 197.23 161.411 196.444C162.143 195.653 163.12 195.258 164.342 195.258C165.564 195.258 166.54 195.653 167.272 196.444C168.004 197.23 168.37 198.301 168.37 199.657C168.37 201.019 168.004 202.095 167.272 202.886ZM164.342 202.628C165.036 202.628 165.585 202.367 165.989 201.845C166.392 201.323 166.594 200.594 166.594 199.657C166.594 198.726 166.39 198 165.981 197.478C165.577 196.956 165.031 196.695 164.342 196.695C163.653 196.695 163.104 196.956 162.695 197.478C162.291 198 162.09 198.726 162.09 199.657C162.09 200.594 162.291 201.323 162.695 201.845C163.104 202.367 163.653 202.628 164.342 202.628ZM169.718 203.904V195.411H171.381V196.856H171.422C171.562 196.361 171.812 195.973 172.173 195.694C172.533 195.414 172.964 195.274 173.464 195.274C173.631 195.274 173.83 195.295 174.062 195.338V196.961C173.906 196.896 173.645 196.864 173.279 196.864C172.719 196.864 172.275 197.039 171.947 197.389C171.624 197.739 171.462 198.215 171.462 198.818V203.904H169.718ZM175.652 193.401H177.404V195.411H179.018V196.791H177.404V201.474C177.404 201.84 177.487 202.109 177.654 202.281C177.821 202.453 178.082 202.539 178.437 202.539C178.695 202.539 178.887 202.526 179.01 202.499V203.879C178.795 203.933 178.472 203.96 178.042 203.96C177.186 203.96 176.572 203.785 176.201 203.435C175.835 203.08 175.652 202.491 175.652 201.667V196.791H174.417V195.411H175.652V193.401ZM186.785 202.669C187.398 202.669 187.912 202.483 188.326 202.111C188.746 201.735 188.956 201.272 188.956 200.723V200.053L186.865 200.182C186.343 200.22 185.94 200.349 185.654 200.57C185.374 200.785 185.235 201.075 185.235 201.441C185.235 201.813 185.374 202.111 185.654 202.338C185.94 202.558 186.316 202.669 186.785 202.669ZM186.3 204.049C185.466 204.049 184.785 203.812 184.258 203.339C183.736 202.865 183.475 202.249 183.475 201.49C183.475 200.747 183.749 200.158 184.298 199.722C184.847 199.281 185.625 199.033 186.631 198.979L188.956 198.842V198.188C188.956 197.714 188.805 197.346 188.504 197.082C188.203 196.813 187.786 196.678 187.253 196.678C186.758 196.678 186.354 196.789 186.042 197.009C185.735 197.23 185.541 197.534 185.461 197.922H183.814C183.862 197.136 184.201 196.495 184.831 196C185.461 195.505 186.289 195.258 187.317 195.258C188.345 195.258 189.163 195.511 189.772 196.016C190.385 196.522 190.692 197.2 190.692 198.051V203.904H189.021V202.507H188.98C188.738 202.975 188.37 203.349 187.874 203.629C187.385 203.909 186.86 204.049 186.3 204.049ZM192.387 203.904V195.411H194.05V196.832H194.091C194.327 196.337 194.672 195.952 195.124 195.677C195.576 195.403 196.122 195.266 196.763 195.266C197.694 195.266 198.418 195.546 198.934 196.105C199.451 196.66 199.709 197.427 199.709 198.406V203.904H197.957V198.745C197.957 198.099 197.804 197.61 197.497 197.276C197.196 196.937 196.747 196.767 196.149 196.767C195.536 196.767 195.046 196.966 194.68 197.365C194.314 197.763 194.131 198.293 194.131 198.955V203.904H192.387ZM206.773 203.904H204.965V192.254H206.773V203.904ZM208.711 203.904V195.411H210.374V196.832H210.414C210.651 196.337 210.995 195.952 211.447 195.677C211.899 195.403 212.446 195.266 213.086 195.266C214.017 195.266 214.741 195.546 215.258 196.105C215.774 196.66 216.033 197.427 216.033 198.406V203.904H214.281V198.745C214.281 198.099 214.128 197.61 213.821 197.276C213.519 196.937 213.07 196.767 212.473 196.767C211.859 196.767 211.369 196.966 211.003 197.365C210.637 197.763 210.454 198.293 210.454 198.955V203.904H208.711ZM225.01 198.333H223.347C223.255 197.854 223.035 197.464 222.685 197.163C222.34 196.861 221.896 196.711 221.353 196.711C220.675 196.711 220.131 196.977 219.722 197.51C219.318 198.037 219.117 198.753 219.117 199.657C219.117 200.578 219.318 201.299 219.722 201.821C220.131 202.343 220.68 202.604 221.369 202.604C221.902 202.604 222.338 202.467 222.677 202.192C223.021 201.912 223.245 201.525 223.347 201.03H225.026C224.934 201.939 224.552 202.674 223.88 203.234C223.212 203.788 222.37 204.065 221.353 204.065C220.131 204.065 219.157 203.672 218.43 202.886C217.704 202.095 217.341 201.019 217.341 199.657C217.341 198.312 217.704 197.244 218.43 196.452C219.157 195.656 220.126 195.258 221.337 195.258C222.391 195.258 223.247 195.554 223.904 196.146C224.56 196.732 224.929 197.461 225.01 198.333ZM226.318 203.904V195.411H228.061V203.904H226.318ZM227.908 193.877C227.709 194.071 227.469 194.168 227.189 194.168C226.91 194.168 226.67 194.071 226.471 193.877C226.277 193.683 226.18 193.449 226.18 193.175C226.18 192.895 226.277 192.658 226.471 192.464C226.67 192.271 226.91 192.174 227.189 192.174C227.475 192.174 227.714 192.271 227.908 192.464C228.107 192.658 228.207 192.895 228.207 193.175C228.207 193.449 228.107 193.683 227.908 193.877ZM233.034 204.049C231.958 204.049 231.094 203.651 230.443 202.854C229.792 202.058 229.466 200.992 229.466 199.657C229.466 198.323 229.789 197.26 230.435 196.469C231.086 195.672 231.947 195.274 233.018 195.274C233.616 195.274 234.148 195.414 234.617 195.694C235.085 195.968 235.44 196.345 235.682 196.824H235.715V192.254H237.466V203.904H235.771V202.459H235.739C235.486 202.954 235.122 203.344 234.649 203.629C234.181 203.909 233.642 204.049 233.034 204.049ZM233.494 196.743C232.806 196.743 232.259 197.007 231.856 197.534C231.452 198.056 231.25 198.764 231.25 199.657C231.25 200.556 231.452 201.267 231.856 201.789C232.259 202.311 232.806 202.572 233.494 202.572C234.167 202.572 234.708 202.308 235.117 201.781C235.526 201.248 235.731 200.54 235.731 199.657C235.731 198.78 235.526 198.075 235.117 197.542C234.708 197.009 234.167 196.743 233.494 196.743ZM244.288 197.276C243.906 196.867 243.413 196.662 242.811 196.662C242.208 196.662 241.707 196.869 241.309 197.284C240.911 197.693 240.69 198.223 240.647 198.874H244.893C244.872 198.218 244.67 197.685 244.288 197.276ZM244.885 201.409H246.54C246.416 202.19 246.018 202.827 245.345 203.322C244.673 203.818 243.852 204.065 242.883 204.065C241.64 204.065 240.661 203.675 239.945 202.895C239.234 202.109 238.879 201.043 238.879 199.698C238.879 198.363 239.234 197.289 239.945 196.477C240.661 195.664 241.616 195.258 242.811 195.258C243.984 195.258 244.915 195.642 245.604 196.412C246.293 197.176 246.637 198.204 246.637 199.496V200.093H240.639V200.198C240.639 200.941 240.846 201.536 241.261 201.982C241.675 202.429 242.229 202.652 242.924 202.652C243.413 202.652 243.833 202.539 244.183 202.313C244.533 202.087 244.767 201.786 244.885 201.409ZM247.993 203.904V195.411H249.656V196.832H249.697C249.934 196.337 250.278 195.952 250.73 195.677C251.182 195.403 251.728 195.266 252.369 195.266C253.3 195.266 254.024 195.546 254.541 196.105C255.057 196.66 255.316 197.427 255.316 198.406V203.904H253.564V198.745C253.564 198.099 253.41 197.61 253.104 197.276C252.802 196.937 252.353 196.767 251.755 196.767C251.142 196.767 250.652 196.966 250.286 197.365C249.92 197.763 249.737 198.293 249.737 198.955V203.904H247.993ZM257.511 193.401H259.263V195.411H260.878V196.791H259.263V201.474C259.263 201.84 259.347 202.109 259.513 202.281C259.68 202.453 259.941 202.539 260.297 202.539C260.555 202.539 260.746 202.526 260.87 202.499V203.879C260.654 203.933 260.332 203.96 259.901 203.96C259.045 203.96 258.432 203.785 258.06 203.435C257.694 203.08 257.511 202.491 257.511 201.667V196.791H256.276V195.411H257.511V193.401Z" fill="#FDFDFD"/>
</g>
<defs>
<filter id="filter0_d_325_2385" x="0" y="0" width="390" height="470" filterUnits="userSpaceOnUse" color-interpolation-filters="sRGB">
<feFlood flood-opacity="0" result="BackgroundImageFix"/>
<feColorMatrix in="SourceAlpha" type="matrix" values="0 0 0 0 0 0 0 0 0 0 0 0 0 0 0 0 0 0 127 0" result="hardAlpha"/>
<feOffset dy="2"/>
<feGaussianBlur stdDeviation="22.5"/>
<feComposite in2="hardAlpha" operator="out"/>
<feColorMatrix type="matrix" values="0 0 0 0 0 0 0 0 0 0 0 0 0 0 0 0 0 0 0.05 0"/>
<feBlend mode="normal" in2="BackgroundImageFix" result="effect1_dropShadow_325_2385"/>
<feBlend mode="normal" in="SourceGraphic" in2="effect1_dropShadow_325_2385" result="shape"/>
</filter>
<linearGradient id="paint0_linear_325_2385" x1="195" y1="163" x2="195" y2="232.807" gradientUnits="userSpaceOnUse">
<stop stop-color="#A93A3A"/>
<stop offset="1" stop-color="#6C2525"/>
</linearGradient>
</defs>
</svg>
