<svg width="37" height="38" viewBox="0 0 37 38" fill="none" xmlns="http://www.w3.org/2000/svg">
<path d="M37 19C37 21.4295 36.5215 23.8351 35.5918 26.0796C34.6621 28.3242 33.2994 30.3636 31.5815 32.0815C29.8636 33.7994 27.8242 35.1621 25.5796 36.0918C23.3351 37.0215 20.9295 37.5 18.5 37.5V19H37Z" fill="#73B894"/>
<path d="M37 19C37 15.341 35.915 11.7643 33.8822 8.72195C31.8494 5.67964 28.9601 3.30845 25.5796 1.90823C22.1992 0.508007 18.4795 0.141646 14.8908 0.855472C11.3022 1.5693 8.0058 3.33125 5.41852 5.91852C2.83125 8.5058 1.0693 11.8022 0.355472 15.3908C-0.358354 18.9795 0.00800746 22.6992 1.40823 26.0796C2.80845 29.4601 5.17964 32.3494 8.22195 34.3822C11.2643 36.415 14.841 37.5 18.5 37.5V19H37Z" fill="#F0C93E"/>
<circle cx="18.5004" cy="19.0004" r="9.75455" fill="#B03E3E"/>
</svg>
