{"extensionsUsed" : ["KHR_materials_specular", "KHR_materials_ior"], "accessors" : [{"bufferView" : 0, "byteOffset" : 0, "componentType" : 5123, "count" : 36, "type" : "SCALAR", "max" : [29], "min" : [0]}, {"bufferView" : 1, "byteOffset" : 0, "componentType" : 5126, "count" : 30, "type" : "VEC3", "max" : [1, 1, 1], "min" : [-1, -1, -1], "name" : "POSITION"}, {"bufferView" : 1, "byteOffset" : 12, "componentType" : 5126, "count" : 30, "type" : "VEC3", "max" : [1.0000044107437134, 1.0000044107437134, 1.0000044107437134], "min" : [-1.0000044107437134, -1.0000044107437134, -1.0000044107437134], "name" : "NORMAL"}, {"bufferView" : 1, "byteOffset" : 24, "componentType" : 5126, "count" : 30, "type" : "VEC2", "max" : [0.875, 1], "min" : [0.125, 0], "name" : "TEXCOORD_0"}, {"bufferView" : 0, "byteOffset" : 72, "componentType" : 5123, "count" : 7158, "type" : "SCALAR", "max" : [5977], "min" : [0]}, {"bufferView" : 2, "byteOffset" : 0, "componentType" : 5126, "count" : 5978, "type" : "VEC3", "max" : [1.0609862804412842, 1.150985598564148, 1.909354567527771], "min" : [-1.0609862804412842, -1.0034072399139404, -1.202476978302002], "name" : "POSITION"}, {"bufferView" : 2, "byteOffset" : 12, "componentType" : 5126, "count" : 5978, "type" : "VEC3", "max" : [1.0000044107437134, 1.0000044107437134, 1.0000044107437134], "min" : [-1.0000044107437134, -1.0000044107437134, -1.0000044107437134], "name" : "NORMAL"}, {"bufferView" : 2, "byteOffset" : 24, "componentType" : 5126, "count" : 5978, "type" : "VEC2", "max" : [0.9900000095367432, 0.9900000095367432], "min" : [0, 0], "name" : "TEXCOORD_0"}, {"bufferView" : 0, "byteOffset" : 14388, "componentType" : 5123, "count" : 72, "type" : "SCALAR", "max" : [59], "min" : [0]}, {"bufferView" : 3, "byteOffset" : 0, "componentType" : 5126, "count" : 60, "type" : "VEC3", "max" : [0.962395966053009, 0.962395966053009, 1.4792455434799194], "min" : [-0.962395966053009, -0.13476818799972534, -0.9677026867866516], "name" : "POSITION"}, {"bufferView" : 3, "byteOffset" : 12, "componentType" : 5126, "count" : 60, "type" : "VEC3", "max" : [1.0000044107437134, 0.11155471950769424, 0.993762731552124], "min" : [-1.0000044107437134, 0, -1.0000044107437134], "name" : "NORMAL"}, {"bufferView" : 3, "byteOffset" : 24, "componentType" : 5126, "count" : 60, "type" : "VEC2", "max" : [0.6202994585037231, 0.6202995181083679], "min" : [0.5028591156005859, 0.125], "name" : "TEXCOORD_0"}, {"bufferView" : 0, "byteOffset" : 14532, "componentType" : 5123, "count" : 1368, "type" : "SCALAR", "max" : [1143], "min" : [0]}, {"bufferView" : 4, "byteOffset" : 0, "componentType" : 5126, "count" : 1144, "type" : "VEC3", "max" : [1.0378985404968262, -0.5062833428382874, 1.992740511894226], "min" : [-1.0378985404968262, -0.9530727863311768, -1.2659968137741089], "name" : "POSITION"}, {"bufferView" : 4, "byteOffset" : 12, "componentType" : 5126, "count" : 1144, "type" : "VEC3", "max" : [1.0000044107437134, 1.0000044107437134, 1.0000044107437134], "min" : [-1.0000044107437134, -1.0000044107437134, -1.0000044107437134], "name" : "NORMAL"}, {"bufferView" : 4, "byteOffset" : 24, "componentType" : 5126, "count" : 1144, "type" : "VEC2", "max" : [1, 0.9900000095367432], "min" : [0, 0], "name" : "TEXCOORD_0"}, {"bufferView" : 0, "byteOffset" : 17268, "componentType" : 5123, "count" : 564, "type" : "SCALAR", "max" : [471], "min" : [0]}, {"bufferView" : 5, "byteOffset" : 0, "componentType" : 5126, "count" : 472, "type" : "VEC3", "max" : [0.8112995624542236, -0.3646777272224426, 1.943942666053772], "min" : [-0.8112995624542236, -0.6027212738990784, 1.8817731142044067], "name" : "POSITION"}, {"bufferView" : 5, "byteOffset" : 12, "componentType" : 5126, "count" : 472, "type" : "VEC3", "max" : [0.9951893091201782, 0.9951892495155334, 1.0000044107437134], "min" : [-0.9951893091201782, -0.9951889514923096, -1.9347635316080414E-06], "name" : "NORMAL"}, {"bufferView" : 5, "byteOffset" : 24, "componentType" : 5126, "count" : 472, "type" : "VEC2", "max" : [1, 0.9900000095367432], "min" : [0, 0], "name" : "TEXCOORD_0"}, {"bufferView" : 0, "byteOffset" : 18396, "componentType" : 5123, "count" : 1842, "type" : "SCALAR", "max" : [1521], "min" : [0]}, {"bufferView" : 6, "byteOffset" : 0, "componentType" : 5126, "count" : 1522, "type" : "VEC3", "max" : [1.026518702507019, 0.9800731539726257, 1.9913495779037476], "min" : [-1.026518702507019, -0.9999999403953552, -1.2361860275268555], "name" : "POSITION"}, {"bufferView" : 6, "byteOffset" : 12, "componentType" : 5126, "count" : 1522, "type" : "VEC3", "max" : [1.0000044107437134, 1.0000044107437134, 1.0000044107437134], "min" : [-1.0000044107437134, -1.0000044107437134, -1.0000044107437134], "name" : "NORMAL"}, {"bufferView" : 6, "byteOffset" : 24, "componentType" : 5126, "count" : 1522, "type" : "VEC2", "max" : [0.875, 1], "min" : [0.125, 0], "name" : "TEXCOORD_0"}, {"bufferView" : 0, "byteOffset" : 22080, "componentType" : 5123, "count" : 492, "type" : "SCALAR", "max" : [409], "min" : [0]}, {"bufferView" : 7, "byteOffset" : 0, "componentType" : 5126, "count" : 410, "type" : "VEC3", "max" : [1.0977500677108765, 1.854109764099121, 1.697489619255066], "min" : [-1.0977500677108765, -0.5874141454696655, -0.19692835211753845], "name" : "POSITION"}, {"bufferView" : 7, "byteOffset" : 12, "componentType" : 5126, "count" : 410, "type" : "VEC3", "max" : [1.0000044107437134, 1.0000044107437134, 1.0000044107437134], "min" : [-1.0000044107437134, -1.0000044107437134, -1.0000044107437134], "name" : "NORMAL"}, {"bufferView" : 7, "byteOffset" : 24, "componentType" : 5126, "count" : 410, "type" : "VEC2", "max" : [0.875, 1], "min" : [0.125, 0], "name" : "TEXCOORD_0"}, {"bufferView" : 0, "byteOffset" : 23064, "componentType" : 5123, "count" : 108, "type" : "SCALAR", "max" : [89], "min" : [0]}, {"bufferView" : 8, "byteOffset" : 0, "componentType" : 5126, "count" : 90, "type" : "VEC3", "max" : [0.9800731539726257, 0.9800731539726257, 1.2817744016647339], "min" : [-0.9800731539726257, 0.684716522693634, 1], "name" : "POSITION"}, {"bufferView" : 8, "byteOffset" : 12, "componentType" : 5126, "count" : 90, "type" : "VEC3", "max" : [1.0000044107437134, 1.0000044107437134, 1.0000044107437134], "min" : [-1.0000044107437134, -0.9999947547912598, -0.9952325224876404], "name" : "NORMAL"}, {"bufferView" : 8, "byteOffset" : 24, "componentType" : 5126, "count" : 90, "type" : "VEC2", "max" : [0.6233047842979431, 0.24750912189483643], "min" : [0.6052947640419006, 0.125], "name" : "TEXCOORD_0"}, {"bufferView" : 0, "byteOffset" : 23280, "componentType" : 5123, "count" : 204, "type" : "SCALAR", "max" : [172], "min" : [0]}, {"bufferView" : 9, "byteOffset" : 0, "componentType" : 5126, "count" : 173, "type" : "VEC3", "max" : [1, 0.9800731539726257, 1.2817744016647339], "min" : [-1, 0, -1], "name" : "POSITION"}, {"bufferView" : 9, "byteOffset" : 12, "componentType" : 5126, "count" : 173, "type" : "VEC3", "max" : [1.0000044107437134, 1.0000044107437134, 1.0000044107437134], "min" : [-1.0000044107437134, -0.9999947547912598, -0.9952325224876404], "name" : "NORMAL"}, {"bufferView" : 9, "byteOffset" : 24, "componentType" : 5126, "count" : 173, "type" : "VEC2", "max" : [0.6235281825065613, 0.5], "min" : [0.5, 0.125], "name" : "TEXCOORD_0"}, {"bufferView" : 0, "byteOffset" : 23688, "componentType" : 5123, "count" : 2100, "type" : "SCALAR", "max" : [1751], "min" : [0]}, {"bufferView" : 10, "byteOffset" : 0, "componentType" : 5126, "count" : 1752, "type" : "VEC3", "max" : [0.7691131830215454, 1.3295462131500244, 0.769113302230835], "min" : [-0.7691140174865723, -18.201997756958008, -0.769113302230835], "name" : "POSITION"}, {"bufferView" : 10, "byteOffset" : 12, "componentType" : 5126, "count" : 1752, "type" : "VEC3", "max" : [0.9999328851699829, 1.0000044107437134, 0.9999328851699829], "min" : [-0.9999328851699829, -1.0000044107437134, -0.9999328851699829], "name" : "NORMAL"}, {"bufferView" : 10, "byteOffset" : 24, "componentType" : 5126, "count" : 1752, "type" : "VEC2", "max" : [0.8040298223495483, 0.9345872402191162], "min" : [0.06541276723146439, 0.5654128789901733], "name" : "TEXCOORD_0"}, {"bufferView" : 0, "byteOffset" : 27888, "componentType" : 5123, "count" : 1344, "type" : "SCALAR", "max" : [1118], "min" : [0]}, {"bufferView" : 11, "byteOffset" : 0, "componentType" : 5126, "count" : 1119, "type" : "VEC3", "max" : [1, 1.3295462131500244, 1.0000001192092896], "min" : [-1.0000008344650269, -18.201997756958008, -1.0000001192092896], "name" : "POSITION"}, {"bufferView" : 11, "byteOffset" : 12, "componentType" : 5126, "count" : 1119, "type" : "VEC3", "max" : [0.9951892495155334, 1.0000044107437134, 0.9951892495155334], "min" : [-0.9951891899108887, -1.0000044107437134, -0.9951891899108887], "name" : "NORMAL"}, {"bufferView" : 11, "byteOffset" : 24, "componentType" : 5126, "count" : 1119, "type" : "VEC2", "max" : [1, 0.9900000095367432], "min" : [0, 0], "name" : "TEXCOORD_0"}, {"bufferView" : 0, "byteOffset" : 30576, "componentType" : 5123, "count" : 2100, "type" : "SCALAR", "max" : [1751], "min" : [0]}, {"bufferView" : 12, "byteOffset" : 0, "componentType" : 5126, "count" : 1752, "type" : "VEC3", "max" : [0.7691136002540588, 9.765763282775879, 0.7691133618354797], "min" : [-0.7691136002540588, -9.765780448913574, -0.7691132426261902], "name" : "POSITION"}, {"bufferView" : 12, "byteOffset" : 12, "componentType" : 5126, "count" : 1752, "type" : "VEC3", "max" : [0.9999328851699829, 1.0000044107437134, 0.9999327659606934], "min" : [-0.9999328255653381, -1.0000044107437134, -0.9999328851699829], "name" : "NORMAL"}, {"bufferView" : 12, "byteOffset" : 24, "componentType" : 5126, "count" : 1752, "type" : "VEC2", "max" : [0.8040298223495483, 0.9345872402191162], "min" : [0.06541276723146439, 0.5654128789901733], "name" : "TEXCOORD_0"}, {"bufferView" : 0, "byteOffset" : 34776, "componentType" : 5123, "count" : 1344, "type" : "SCALAR", "max" : [1118], "min" : [0]}, {"bufferView" : 13, "byteOffset" : 0, "componentType" : 5126, "count" : 1119, "type" : "VEC3", "max" : [1.0000003576278687, 9.765763282775879, 1.0000001192092896], "min" : [-1.0000004768371582, -9.765780448913574, -1.0000001192092896], "name" : "POSITION"}, {"bufferView" : 13, "byteOffset" : 12, "componentType" : 5126, "count" : 1119, "type" : "VEC3", "max" : [0.9951892495155334, 1.0000044107437134, 0.9951892495155334], "min" : [-0.9951891303062439, -1.0000044107437134, -0.9951891899108887], "name" : "NORMAL"}, {"bufferView" : 13, "byteOffset" : 24, "componentType" : 5126, "count" : 1119, "type" : "VEC2", "max" : [1, 0.9900000095367432], "min" : [0, 0], "name" : "TEXCOORD_0"}], "asset" : {"generator" : "Aspose.3D 23.9.0", "version" : "2.0"}, "buffers" : [{"uri" : "data:application/octet-stream;base64,", "byteLength" : 636944}], "bufferViews" : [{"buffer" : 0, "byteOffset" : 0, "byteLength" : 37464, "target" : 34963}, {"buffer" : 0, "byteOffset" : 37468, "byteLength" : 1152, "byteStride" : 32, "target" : 34962}, {"buffer" : 0, "byteOffset" : 38624, "byteLength" : 229056, "byteStride" : 32, "target" : 34962}, {"buffer" : 0, "byteOffset" : 267684, "byteLength" : 2304, "byteStride" : 32, "target" : 34962}, {"buffer" : 0, "byteOffset" : 269992, "byteLength" : 43776, "byteStride" : 32, "target" : 34962}, {"buffer" : 0, "byteOffset" : 313772, "byteLength" : 18048, "byteStride" : 32, "target" : 34962}, {"buffer" : 0, "byteOffset" : 331824, "byteLength" : 58944, "byteStride" : 32, "target" : 34962}, {"buffer" : 0, "byteOffset" : 390772, "byteLength" : 15744, "byteStride" : 32, "target" : 34962}, {"buffer" : 0, "byteOffset" : 406520, "byteLength" : 3456, "byteStride" : 32, "target" : 34962}, {"buffer" : 0, "byteOffset" : 409980, "byteLength" : 6528, "byteStride" : 32, "target" : 34962}, {"buffer" : 0, "byteOffset" : 416512, "byteLength" : 67200, "byteStride" : 32, "target" : 34962}, {"buffer" : 0, "byteOffset" : 483716, "byteLength" : 43008, "byteStride" : 32, "target" : 34962}, {"buffer" : 0, "byteOffset" : 526728, "byteLength" : 67200, "byteStride" : 32, "target" : 34962}, {"buffer" : 0, "byteOffset" : 593932, "byteLength" : 43008, "byteStride" : 32, "target" : 34962}], "materials" : [{"name" : "Material", "pbrMetallicRoughness" : {"baseColorFactor" : [0.800000011920929, 0.800000011920929, 0.800000011920929, 1], "metallicFactor" : 0, "roughnessFactor" : 0.5}, "emissiveFactor" : [0, 0, 0], "alphaMode" : "OPAQUE", "doubleSided" : true}, {"name" : "Material.001", "extensions" : {"KHR_materials_specular" : {"specularColorFactor" : [0, 0, 0]}, "KHR_materials_ior" : {"ior" : 1.4500000476837158}}, "pbrMetallicRoughness" : {"baseColorFactor" : [0.5868898630142212, 0.609458327293396, 0.6151776313781738, 1], "metallicFactor" : 0, "roughnessFactor" : 1}, "emissiveFactor" : [0, 0, 0], "alphaMode" : "OPAQUE", "doubleSided" : true}, {"name" : "Material.002", "pbrMetallicRoughness" : {"baseColorFactor" : [0.02518686279654503, 0.048171836882829666, 0.08021984994411469, 1], "metallicFactor" : 0, "roughnessFactor" : 0.5}, "emissiveFactor" : [0, 0, 0], "alphaMode" : "OPAQUE", "doubleSided" : true}, {"name" : "Material.003", "extensions" : {"KHR_materials_specular" : {"specularColorFactor" : [0, 0, 0]}, "KHR_materials_ior" : {"ior" : 1.4500000476837158}}, "pbrMetallicRoughness" : {"baseColorFactor" : [0.6514060497283936, 0.0886554941534996, 0, 1], "metallicFactor" : 0, "roughnessFactor" : 1}, "emissiveFactor" : [0, 0, 0], "alphaMode" : "OPAQUE", "doubleSided" : true}, {"name" : "Material.004", "pbrMetallicRoughness" : {"baseColorFactor" : [1, 1, 1, 1], "metallicFactor" : 0, "roughnessFactor" : 0.5}, "emissiveFactor" : [0, 0, 0], "alphaMode" : "OPAQUE", "doubleSided" : true}, {"name" : "Material.005", "pbrMetallicRoughness" : {"baseColorFactor" : [0.18446967005729675, 0.18446967005729675, 0.18446967005729675, 1], "metallicFactor" : 0, "roughnessFactor" : 0.5}, "emissiveFactor" : [0, 0, 0], "alphaMode" : "OPAQUE", "doubleSided" : true}, {"name" : "Material.006", "pbrMetallicRoughness" : {"baseColorFactor" : [0.006370244547724724, 0.006370244547724724, 0.006370244547724724, 1], "metallicFactor" : 0, "roughnessFactor" : 0.5}, "emissiveFactor" : [0, 0, 0], "alphaMode" : "OPAQUE", "doubleSided" : true}, {"name" : "Material.007", "pbrMetallicRoughness" : {"baseColorFactor" : [0.002731621265411377, 0.23074018955230713, 0.7681513428688049, 1], "metallicFactor" : 0, "roughnessFactor" : 1}, "emissiveFactor" : [0, 0, 0], "alphaMode" : "OPAQUE", "doubleSided" : true}, {"name" : "Material.008", "pbrMetallicRoughness" : {"baseColorFactor" : [0.672443687915802, 0.0025020393077284098, 0.006582221947610378, 1], "metallicFactor" : 0, "roughnessFactor" : 1}, "emissiveFactor" : [0, 0, 0], "alphaMode" : "OPAQUE", "doubleSided" : true}, {"name" : "Material.005", "pbrMetallicRoughness" : {"baseColorFactor" : [0.18446967005729675, 0.18446967005729675, 0.18446967005729675, 1], "metallicFactor" : 0, "roughnessFactor" : 0.5}, "emissiveFactor" : [0, 0, 0], "alphaMode" : "OPAQUE", "doubleSided" : true}, {"name" : "Material.006", "pbrMetallicRoughness" : {"baseColorFactor" : [0.006370244547724724, 0.006370244547724724, 0.006370244547724724, 1], "metallicFactor" : 0, "roughnessFactor" : 0.5}, "emissiveFactor" : [0, 0, 0], "alphaMode" : "OPAQUE", "doubleSided" : true}, {"name" : "Material.005", "pbrMetallicRoughness" : {"baseColorFactor" : [0.18446967005729675, 0.18446967005729675, 0.18446967005729675, 1], "metallicFactor" : 0, "roughnessFactor" : 0.5}, "emissiveFactor" : [0, 0, 0], "alphaMode" : "OPAQUE", "doubleSided" : true}, {"name" : "Material.006", "pbrMetallicRoughness" : {"baseColorFactor" : [0.006370244547724724, 0.006370244547724724, 0.006370244547724724, 1], "metallicFactor" : 0, "roughnessFactor" : 0.5}, "emissiveFactor" : [0, 0, 0], "alphaMode" : "OPAQUE", "doubleSided" : true}], "meshes" : [{"primitives" : [{"attributes" : {"POSITION" : 1, "NORMAL" : 2, "TEXCOORD_0" : 3}, "indices" : 0, "material" : 0, "mode" : 4}]}, {"primitives" : [{"attributes" : {"POSITION" : 5, "NORMAL" : 6, "TEXCOORD_0" : 7}, "indices" : 4, "material" : 1, "mode" : 4}, {"attributes" : {"POSITION" : 9, "NORMAL" : 10, "TEXCOORD_0" : 11}, "indices" : 8, "material" : 2, "mode" : 4}, {"attributes" : {"POSITION" : 13, "NORMAL" : 14, "TEXCOORD_0" : 15}, "indices" : 12, "material" : 3, "mode" : 4}, {"attributes" : {"POSITION" : 17, "NORMAL" : 18, "TEXCOORD_0" : 19}, "indices" : 16, "material" : 4, "mode" : 4}, {"attributes" : {"POSITION" : 21, "NORMAL" : 22, "TEXCOORD_0" : 23}, "indices" : 20, "material" : 5, "mode" : 4}, {"attributes" : {"POSITION" : 25, "NORMAL" : 26, "TEXCOORD_0" : 27}, "indices" : 24, "material" : 6, "mode" : 4}, {"attributes" : {"POSITION" : 29, "NORMAL" : 30, "TEXCOORD_0" : 31}, "indices" : 28, "material" : 7, "mode" : 4}, {"attributes" : {"POSITION" : 33, "NORMAL" : 34, "TEXCOORD_0" : 35}, "indices" : 32, "material" : 8, "mode" : 4}]}, {"primitives" : [{"attributes" : {"POSITION" : 37, "NORMAL" : 38, "TEXCOORD_0" : 39}, "indices" : 36, "material" : 9, "mode" : 4}, {"attributes" : {"POSITION" : 41, "NORMAL" : 42, "TEXCOORD_0" : 43}, "indices" : 40, "material" : 10, "mode" : 4}]}, {"primitives" : [{"attributes" : {"POSITION" : 45, "NORMAL" : 46, "TEXCOORD_0" : 47}, "indices" : 44, "material" : 11, "mode" : 4}, {"attributes" : {"POSITION" : 49, "NORMAL" : 50, "TEXCOORD_0" : 51}, "indices" : 48, "material" : 12, "mode" : 4}]}], "nodes" : [{"mesh" : 0, "name" : "Cube"}, {"matrix" : [1.249999761581421, 0, 0, 0, 0, 1.2500001192092896, 0, 0, 0, 0, 2.000000476837158, 0, 0, 0, 0, 1], "mesh" : 1, "name" : "Ambulance"}, {"matrix" : [1.0403251590242306E-07, -0.2801065945116251, 0, 0, 0.12288520064544249, 4.563997007142534E-08, 0, 0, 0, 0, 0.2801066040992737, 0, 1.0366873741149902, -1.3249361515045166, 2.901142120361328, 1], "mesh" : 2, "name" : "wheels1"}, {"matrix" : [1.0403251590242306E-07, -0.2801065945116251, 0, 0, 0.1520841963687008, 5.64845736845994E-08, 0, 0, 0, 0, 0.2801066040992737, 0, 0, -1.3249361515045166, -0.9745256304740906, 1], "mesh" : 3, "name" : "wheels2"}], "scene" : 0, "scenes" : [{"nodes" : [0, 1, 2, 3]}]}