<svg width="697" height="697" viewBox="0 0 697 697" fill="none" xmlns="http://www.w3.org/2000/svg">
<rect width="697" height="697" rx="348.5" fill="#F2CE8E"/>
<rect x="21" y="20" width="656" height="656" rx="328" fill="#314965"/>
<path fill-rule="evenodd" clip-rule="evenodd" d="M269.187 94.1263C224.808 98.7653 184.331 123.731 159.786 161.605C138.801 193.984 131.559 234.522 140 272.357C143.318 287.226 147.658 298.577 157.672 318.571C167.693 338.58 182.175 361.132 196.397 378.871C214.39 401.316 250.078 434.771 262.473 440.815C276.791 447.797 292.361 447.775 306.269 440.755C334.018 426.748 368.551 375.369 368.551 375.369L368.765 356L331.5 400.996C331.5 400.996 314.907 419.622 303.203 424.135C300.438 425.201 289.175 426.75 284.371 426.748C278.242 426.747 276.956 426.469 272.3 424.135C265.723 420.839 247.748 405.783 234.399 392.388C208.197 366.096 187.865 337.4 172.084 304.437C164.561 288.726 162.342 282.988 159.624 272.226C150.466 235.965 157.643 197.331 179.235 166.656C185.613 157.595 200.716 142.492 209.777 136.114C223.596 126.387 241.935 118.405 258.512 114.904C268.786 112.734 288.661 111.948 299.348 113.288C318.714 115.718 339.316 123.31 354.878 133.749C359.233 136.671 361.125 137.464 363.735 137.464C371.76 137.464 376.324 127.708 370.991 121.954C368.507 119.274 355.18 111.185 346.707 107.215C322.95 96.0841 295.232 91.4041 269.187 94.1263ZM425.541 94.3919C414.326 96.8518 403.017 105.505 397.982 115.477C395.276 120.839 391.268 135.817 387.372 155.127C384.864 167.56 384.326 173.56 385.412 177.024C386.61 180.851 390.534 185.449 394.352 187.502C400.886 191.016 402.904 190.983 422.796 187.032C460.045 179.636 479.672 177.528 512.554 177.393C538.735 177.285 539.265 177.178 541.093 171.639C543.094 165.578 539.681 159.906 533.316 158.712C531.724 158.414 519.514 158.369 506.181 158.614C474.612 159.193 452.896 161.69 416.487 168.931C409.699 170.28 404.018 171.26 403.864 171.105C403.504 170.745 409.228 143.173 411.503 134.316C413.647 125.965 415.338 122.612 419.308 118.844C425.955 112.535 421.645 112.969 482.127 112.519L536.227 112.117L538.858 109.486C541.121 107.222 541.488 106.299 541.488 102.863C541.488 99.4268 541.121 98.5038 538.857 96.2394L536.227 93.6089L483.334 93.4633C441.761 93.349 429.392 93.5477 425.541 94.3919ZM380.952 214.071C379.27 215.212 377.774 217.103 377.236 218.768C376.078 222.356 373.252 250.97 371.715 274.664C369.366 310.916 368.781 333.539 368.319 406.015L367.852 479.428L303.203 479.644L238.553 479.859L235.923 482.489C233.659 484.754 233.292 485.677 233.292 489.113C233.292 492.549 233.658 493.472 235.923 495.736L238.553 498.367H355.202H471.852L474.482 495.736C476.746 493.472 477.113 492.549 477.113 489.113C477.113 485.677 476.746 484.754 474.482 482.489L471.852 479.859L429.621 479.637L387.39 479.415V463.342C387.39 454.502 387.539 447.269 387.72 447.269C387.902 447.269 390.291 448.329 393.029 449.624C395.768 450.918 400.416 452.379 403.361 452.869C407.044 453.481 428.608 453.688 472.47 453.532L536.227 453.304L538.857 450.674C541.121 448.409 541.488 447.486 541.488 444.05C541.488 440.614 541.121 439.691 538.857 437.427L536.227 434.796L469.654 434.394C403.299 433.993 403.071 433.986 399.826 432.249C395.376 429.866 390.353 424.217 388.598 419.622C387.23 416.039 387.171 412.922 387.643 368.571C388.262 310.289 390.03 272.782 393.879 236.241C394.753 227.943 395.251 220.288 394.985 219.229C394.225 216.202 390.357 213.025 386.877 212.569C384.482 212.255 383.123 212.6 380.952 214.071ZM414.99 303.994C412.154 305.732 409.92 309.371 409.924 312.243C409.928 314.948 412.705 319.057 415.508 320.507C417.67 321.624 424.681 321.743 477.087 321.552L536.227 321.335L538.857 318.705C541.121 316.441 541.488 315.518 541.488 312.082C541.488 308.646 541.121 307.723 538.857 305.458L536.227 302.828L476.896 302.621C419.16 302.42 417.497 302.457 414.99 303.994ZM413.14 367.871C411.028 368.576 409.863 369.719 408.486 372.433C406.555 376.239 406.63 378.554 408.793 381.897C410.19 384.056 445.964 402.207 448.823 402.207C451.267 402.207 455.867 399.106 457.217 396.55C458.565 393.996 457.958 388.873 456.058 386.762C454.48 385.01 421.339 368.151 417.968 367.387C416.862 367.135 414.689 367.353 413.14 367.871ZM487.412 384.451C484.574 386.203 482.341 389.844 482.346 392.711C482.35 395.43 485.132 399.529 487.969 400.996C490.099 402.097 493.659 402.244 513.337 402.041L536.229 401.804L538.858 399.174C541.121 396.91 541.488 395.986 541.488 392.55C541.488 389.114 541.121 388.191 538.858 385.927L536.228 383.296L513.108 383.078C491.274 382.873 489.844 382.95 487.412 384.451Z" fill="#F2CE8E"/>
<circle cx="281" cy="230" r="54" fill="#F2CE8E"/>
<path d="M196.754 564.068V553.727H237.841V564.068H223.622V601H210.973V564.068H196.754ZM247.911 601.554C245.649 601.554 243.648 601.185 241.909 600.446C240.186 599.692 238.832 598.553 237.847 597.03C236.862 595.506 236.369 593.567 236.369 591.213C236.369 589.274 236.7 587.62 237.362 586.25C238.024 584.865 238.947 583.734 240.132 582.857C241.317 581.98 242.694 581.311 244.264 580.849C245.849 580.387 247.557 580.087 249.388 579.949C251.373 579.795 252.966 579.61 254.166 579.395C255.382 579.164 256.259 578.849 256.797 578.449C257.336 578.033 257.605 577.487 257.605 576.81V576.717C257.605 575.794 257.251 575.086 256.543 574.594C255.836 574.101 254.928 573.855 253.82 573.855C252.604 573.855 251.611 574.124 250.842 574.663C250.088 575.186 249.634 575.994 249.48 577.087H237.754C237.908 574.932 238.593 572.947 239.809 571.131C241.04 569.3 242.832 567.838 245.187 566.746C247.541 565.638 250.48 565.084 254.004 565.084C256.543 565.084 258.821 565.384 260.837 565.984C262.853 566.569 264.568 567.392 265.984 568.454C267.4 569.5 268.477 570.731 269.216 572.147C269.97 573.547 270.347 575.071 270.347 576.717V601H258.436V596.014H258.159C257.451 597.338 256.59 598.407 255.574 599.223C254.574 600.038 253.427 600.631 252.135 601C250.857 601.369 249.449 601.554 247.911 601.554ZM252.065 593.521C253.035 593.521 253.943 593.321 254.789 592.921C255.651 592.521 256.351 591.944 256.89 591.19C257.428 590.436 257.698 589.52 257.698 588.443V585.489C257.359 585.627 256.997 585.758 256.613 585.881C256.243 586.004 255.843 586.12 255.412 586.227C254.997 586.335 254.551 586.435 254.074 586.527C253.612 586.62 253.127 586.704 252.619 586.781C251.635 586.935 250.827 587.189 250.196 587.543C249.58 587.882 249.119 588.305 248.811 588.812C248.518 589.305 248.372 589.859 248.372 590.474C248.372 591.459 248.718 592.213 249.411 592.737C250.103 593.26 250.988 593.521 252.065 593.521ZM287.422 565.545L292.592 576.533L298.04 565.545H310.689L301.179 583.273L311.151 601H298.594L292.592 589.736L286.776 601H274.034L284.098 583.273L274.68 565.545H287.422ZM315.219 601V565.545H327.96V601H315.219ZM321.59 561.852C319.866 561.852 318.389 561.283 317.158 560.144C315.927 559.005 315.311 557.636 315.311 556.036C315.311 554.435 315.927 553.066 317.158 551.927C318.389 550.788 319.866 550.219 321.59 550.219C323.328 550.219 324.806 550.788 326.021 551.927C327.252 553.066 327.868 554.435 327.868 556.036C327.868 557.636 327.252 559.005 326.021 560.144C324.806 561.283 323.328 561.852 321.59 561.852ZM347.217 601V553.727H367.622C371.13 553.727 374.2 554.366 376.831 555.643C379.463 556.92 381.51 558.759 382.971 561.16C384.433 563.56 385.164 566.438 385.164 569.793C385.164 573.178 384.41 576.033 382.902 578.356C381.41 580.68 379.309 582.434 376.601 583.619C373.908 584.804 370.761 585.396 367.16 585.396H354.972V575.425H364.575C366.083 575.425 367.368 575.24 368.43 574.871C369.507 574.486 370.33 573.878 370.899 573.047C371.484 572.216 371.776 571.131 371.776 569.793C371.776 568.438 371.484 567.338 370.899 566.492C370.33 565.63 369.507 564.999 368.43 564.599C367.368 564.184 366.083 563.976 364.575 563.976H360.051V601H347.217ZM374.916 579.303L386.734 601H372.792L361.251 579.303H374.916ZM400.699 601.554C398.437 601.554 396.436 601.185 394.697 600.446C392.974 599.692 391.62 598.553 390.635 597.03C389.65 595.506 389.157 593.567 389.157 591.213C389.157 589.274 389.488 587.62 390.15 586.25C390.812 584.865 391.735 583.734 392.92 582.857C394.105 581.98 395.482 581.311 397.052 580.849C398.637 580.387 400.345 580.087 402.176 579.949C404.161 579.795 405.754 579.61 406.954 579.395C408.17 579.164 409.047 578.849 409.585 578.449C410.124 578.033 410.393 577.487 410.393 576.81V576.717C410.393 575.794 410.039 575.086 409.331 574.594C408.624 574.101 407.716 573.855 406.608 573.855C405.392 573.855 404.4 574.124 403.63 574.663C402.876 575.186 402.422 575.994 402.268 577.087H390.542C390.696 574.932 391.381 572.947 392.597 571.131C393.828 569.3 395.621 567.838 397.975 566.746C400.329 565.638 403.269 565.084 406.792 565.084C409.331 565.084 411.609 565.384 413.625 565.984C415.641 566.569 417.356 567.392 418.772 568.454C420.188 569.5 421.265 570.731 422.004 572.147C422.758 573.547 423.135 575.071 423.135 576.717V601H411.224V596.014H410.947C410.239 597.338 409.378 598.407 408.362 599.223C407.362 600.038 406.215 600.631 404.923 601C403.646 601.369 402.238 601.554 400.699 601.554ZM404.854 593.521C405.823 593.521 406.731 593.321 407.577 592.921C408.439 592.521 409.139 591.944 409.678 591.19C410.216 590.436 410.486 589.52 410.486 588.443V585.489C410.147 585.627 409.785 585.758 409.401 585.881C409.031 586.004 408.631 586.12 408.2 586.227C407.785 586.335 407.339 586.435 406.862 586.527C406.4 586.62 405.915 586.704 405.407 586.781C404.423 586.935 403.615 587.189 402.984 587.543C402.368 587.882 401.907 588.305 401.599 588.812C401.307 589.305 401.16 589.859 401.16 590.474C401.16 591.459 401.507 592.213 402.199 592.737C402.892 593.26 403.776 593.521 404.854 593.521ZM441.964 581.057V601H429.223V565.545H441.318V572.286H441.687C442.457 570.039 443.811 568.277 445.75 567C447.704 565.722 449.982 565.084 452.582 565.084C455.09 565.084 457.268 565.661 459.114 566.815C460.976 567.954 462.415 569.523 463.431 571.524C464.462 573.524 464.97 575.809 464.954 578.379V601H452.213V581.057C452.228 579.303 451.782 577.925 450.874 576.925C449.982 575.925 448.735 575.425 447.135 575.425C446.088 575.425 445.173 575.656 444.388 576.117C443.618 576.563 443.026 577.21 442.611 578.056C442.195 578.887 441.98 579.887 441.964 581.057ZM482.693 592.598L482.785 577.456H484.447L493.034 565.545H507.345L492.942 584.104H489.341L482.693 592.598ZM471.244 601V553.727H483.986V601H471.244ZM493.126 601L485.001 586.966L493.311 577.918L507.714 601H493.126Z" fill="white"/>
</svg>
