<svg width="59" height="75" viewBox="0 0 59 75" fill="none" xmlns="http://www.w3.org/2000/svg">
<rect width="59" height="59" rx="6" fill="#222222"/>
<path d="M21.6116 27.78C21.1122 27.0923 19.4928 24.8526 19.1168 24.2118C19.0704 24.1328 19.1229 24.041 19.2145 24.041L26.3289 24.041C26.459 24.041 26.5832 24.0924 26.6755 24.184C27.1271 24.633 28.5522 26.0508 29.6607 27.1671C29.8539 27.3617 30.1681 27.3617 30.361 27.1668C31.4639 26.0526 32.8671 24.6383 33.3153 24.1866C33.4078 24.0934 33.5299 24.0411 33.6613 24.0411L40.7767 24.0411C40.8683 24.0411 40.9208 24.1329 40.8745 24.2119C40.4984 24.8526 38.879 27.0924 38.3796 27.7801C38.2871 27.9074 38.1394 27.9824 37.982 27.9824H32.6433C32.551 27.9824 32.4941 28.0802 32.5364 28.1621L36.1689 35.1928C36.2113 35.2747 36.1517 35.3725 36.0595 35.3725H33.2528C33.2127 35.3725 33.1732 35.362 33.1384 35.342C33.1036 35.3221 33.0746 35.2934 33.0543 35.2588L30.0502 30.1341C30.0264 30.0935 29.9678 30.0935 29.944 30.1341L26.9369 35.2587C26.9166 35.2933 26.8876 35.322 26.8528 35.342C26.818 35.3619 26.7786 35.3724 26.7384 35.3724H23.9318C23.8395 35.3724 23.78 35.2747 23.8223 35.1927L27.4548 28.1621C27.4972 28.0801 27.4402 27.9824 27.3479 27.9824H22.0092C21.8519 27.9824 21.7041 27.9073 21.6116 27.78Z" fill="#E3E3E3"/>
<mask id="path-3-inside-1_6279_11020" fill="white">
<path d="M9 10H51V40.1759C51 45.2777 46.8642 49.4135 41.7625 49.4135H18.2375C13.1358 49.4135 9 45.2777 9 40.176V10Z"/>
</mask>
<path d="M2.84164 1.99414H57.1584L44.8416 18.0059H15.1584L2.84164 1.99414ZM57.1584 40.176C57.1584 48.6789 50.2654 55.5718 41.7625 55.5718H18.2375C9.73462 55.5718 2.84164 48.6789 2.84164 40.176H15.1584C15.1584 41.8765 16.537 43.2551 18.2375 43.2551H41.7625C43.463 43.2551 44.8416 41.8765 44.8416 40.176H57.1584ZM18.2375 55.5718C9.73462 55.5718 2.84164 48.6789 2.84164 40.176V1.99414L15.1584 18.0059V40.176C15.1584 41.8765 16.537 43.2551 18.2375 43.2551V55.5718ZM57.1584 1.99414V40.176C57.1584 48.6789 50.2654 55.5718 41.7625 55.5718L41.7625 43.2551C43.463 43.2551 44.8416 41.8765 44.8416 40.176V18.0059L57.1584 1.99414Z" fill="#E3E3E3" mask="url(#path-3-inside-1_6279_11020)"/>
<path d="M29.5 73.5L15 59H44L29.5 73.5Z" fill="#222222" stroke="#222222"/>
</svg>
